<svg width="72" height="72" viewBox="0 0 72 72" fill="none" xmlns="http://www.w3.org/2000/svg">
  <g id="telescope-core-small">
    <path id="Vector" d="M24.0492 36.6016L33.6 46.3898L17.8029 56.8633C17.8029 56.8633 15.8891 57.6983 13.625 55.2638C11.361 52.8293 12.1235 51.238 12.1235 51.238L24.0492 36.6016Z" fill="url(#paint0_radial_5179_1664)"></path>
    <path id="Vector_2" d="M25.0344 34.1992L36 46.151L25.0616 53.8043C25.0616 53.8043 21.8289 55.0984 18.0987 51.0172C14.3686 46.9358 15.9198 44.5105 15.9198 44.5105L25.0344 34.1992Z" fill="url(#paint1_radial_5179_1664)"></path>
    <path id="Vector_3" d="M39 13.0195L59.1 33.6788L32.5325 50.4142C32.5325 50.4142 28.7459 50.2552 24.3978 45.4897C20.0498 40.7243 21.4096 35.8101 21.4096 35.8101L39 13.0195Z" fill="url(#paint2_radial_5179_1664)"></path>
    <path id="Vector_4" d="M57.6709 15.3516C63.1044 21.2807 63.9858 29.2883 59.6386 33.2371C55.2916 37.186 47.3628 35.5806 41.9292 29.6515C36.4954 23.7224 35.6145 15.7148 39.9615 11.766C44.3084 7.81716 52.2372 9.42252 57.6709 15.3516Z" fill="url(#paint3_radial_5179_1664)"></path>
    <path id="Vector_5" d="M58.3787 31.255C54.8121 34.5032 48.2143 33.0817 43.6421 28.0798C39.07 23.078 38.2547 16.39 41.8213 13.1419C45.3879 9.89364 51.9857 11.3152 56.5579 16.3171C61.1298 21.3189 61.9452 28.0069 58.3787 31.255Z" fill="url(#paint4_radial_5179_1664)"></path>
    <path id="Vector_6" opacity="0.85" d="M59.6783 28.823C60.576 24.1785 59.6544 20.5934 56.1603 16.6199C52.6662 12.6464 47.3508 10.8657 43.7796 12.7598C39.371 15.098 48.3734 13.5961 53.4577 19.5815C57.8259 24.724 58.8516 33.1009 59.6783 28.823Z" fill="url(#paint5_radial_5179_1664)"></path>
    <path id="Vector_7" opacity="0.4" d="M50.3979 25.2452C50.4549 26.7239 49.2932 27.7677 47.8032 27.5766C46.3131 27.3856 45.059 26.032 45.002 24.5532C44.945 23.0745 46.1067 22.0307 47.5968 22.2218C49.0868 22.4128 50.341 23.7664 50.3979 25.2452Z" fill="url(#paint6_radial_5179_1664)"></path>
    <path id="Vector_8" opacity="0.6" d="M36.9217 21.0039L26.4258 34.3627C26.3297 36.4604 28.2903 39.5534 30.0334 40.8344L41.2345 29.9105C39.6 28.2005 36.9591 24.1025 36.9217 21.0039Z" fill="url(#paint7_radial_5179_1664)"></path>
    <path id="Vector_9" fill-rule="evenodd" clip-rule="evenodd" d="M20.0576 9.60156L21.479 11.7187L24 11.0654L22.3575 13.0272L23.7789 15.1444L21.3424 14.2397L19.7 16.2016L19.8365 13.6806L17.4 12.7759L19.9209 12.1225L20.0576 9.60156ZM58.776 52.8016L58.9623 56.4685L62.4 57.4188L59.0774 58.7347L59.2637 62.4016L57.0239 59.548L53.7014 60.8638L55.6397 57.7843L53.4 54.9307L56.8377 55.8811L58.776 52.8016ZM15.206 24.2101L15.8768 21.0016L13.4793 23.1964L10.6853 21.5563L11.9975 24.553L9.59998 26.7478L12.8085 26.405L14.1207 29.4016L14.7915 26.1931L18 25.8502L15.206 24.2101Z" fill="url(#paint8_linear_5179_1664)"></path>
  </g>
  <defs>
    <radialGradient id="paint0_radial_5179_1664" cx="0" cy="0" r="1" gradientUnits="userSpaceOnUse" gradientTransform="translate(36.6875 32.7016) rotate(135) scale(34.9134)">
      <stop stop-color="#99421D"></stop>
      <stop offset="0.333333" stop-color="#99161D"></stop>
      <stop offset="0.666667" stop-color="#7D1845"></stop>
      <stop offset="1" stop-color="#59216E"></stop>
    </radialGradient>
    <radialGradient id="paint1_radial_5179_1664" cx="0" cy="0" r="1" gradientUnits="userSpaceOnUse" gradientTransform="translate(42.5937 27.2992) rotate(135) scale(44.5477 44.5279)">
      <stop stop-color="#EF7744"></stop>
      <stop offset="0.333333" stop-color="#E50914"></stop>
      <stop offset="0.666667" stop-color="#A70D53"></stop>
      <stop offset="1" stop-color="#792A95"></stop>
    </radialGradient>
    <radialGradient id="paint2_radial_5179_1664" cx="0" cy="0" r="1" gradientUnits="userSpaceOnUse" gradientTransform="translate(42.3 29.106) rotate(135) scale(31.8127)">
      <stop stop-color="#FB540D"></stop>
      <stop offset="0.333333" stop-color="#E50914"></stop>
      <stop offset="0.666667" stop-color="#A70D53"></stop>
      <stop offset="1" stop-color="#792A95"></stop>
    </radialGradient>
    <radialGradient id="paint3_radial_5179_1664" cx="0" cy="0" r="1" gradientUnits="userSpaceOnUse" gradientTransform="translate(50.008 13.9604) rotate(90) scale(30.3907)">
      <stop stop-color="#2E2E2E"></stop>
      <stop offset="0.333333" stop-color="#1A1A1A"></stop>
      <stop offset="0.666667" stop-color="#171717"></stop>
      <stop offset="1" stop-color="#0D0D0D"></stop>
    </radialGradient>
    <radialGradient id="paint4_radial_5179_1664" cx="0" cy="0" r="1" gradientUnits="userSpaceOnUse" gradientTransform="translate(53.2354 27.7059) rotate(85.1871) scale(16.7094)">
      <stop stop-color="#2E2E2E"></stop>
      <stop offset="0.333333" stop-color="#1A1A1A"></stop>
      <stop offset="0.666667" stop-color="#171717"></stop>
      <stop offset="1" stop-color="#0D0D0D"></stop>
    </radialGradient>
    <radialGradient id="paint5_radial_5179_1664" cx="0" cy="0" r="1" gradientUnits="userSpaceOnUse" gradientTransform="translate(54.5994 25.3505) rotate(140) scale(22.2248)">
      <stop stop-color="#F96319"></stop>
      <stop offset="0.333333" stop-color="#F8491B"></stop>
      <stop offset="0.666667" stop-color="#F2422D"></stop>
      <stop offset="1" stop-color="#A83D66"></stop>
    </radialGradient>
    <radialGradient id="paint6_radial_5179_1664" cx="0" cy="0" r="1" gradientUnits="userSpaceOnUse" gradientTransform="translate(55.8339 27.7503) rotate(155) scale(7.20133)">
      <stop stop-color="#BB2121"></stop>
      <stop offset="0.333333" stop-color="#F10914"></stop>
      <stop offset="0.666667" stop-color="#F2633C"></stop>
      <stop offset="1" stop-color="#F2633C"></stop>
    </radialGradient>
    <radialGradient id="paint7_radial_5179_1664" cx="0" cy="0" r="1" gradientUnits="userSpaceOnUse" gradientTransform="translate(27.9092 26.3911) rotate(91.8657) scale(12.3278)">
      <stop stop-color="#FFB732"></stop>
      <stop offset="0.5" stop-color="#F43F24"></stop>
      <stop offset="1" stop-color="#DA2F27"></stop>
    </radialGradient>
    <linearGradient id="paint8_linear_5179_1664" x1="8.5" y1="13.5" x2="12.5" y2="16.5" gradientUnits="userSpaceOnUse">
      <stop stop-color="#F16831"></stop>
      <stop offset="1" stop-color="#9C4D1D"></stop>
    </linearGradient>
  </defs>
</svg>
